<?xml version="1.0" encoding="UTF-8" standalone="no"?>
<svg width="258px" height="259px" viewBox="0 0 258 259" version="1.1" xmlns="http://www.w3.org/2000/svg" xmlns:xlink="http://www.w3.org/1999/xlink">
    <!-- Generator: Sketch 3.8.2 (29753) - http://www.bohemiancoding.com/sketch -->
    <title>smartx-logo copy 2</title>
    <desc>Created with Sketch.</desc>
    <defs>
        <polyline id="path-1" points="0 0.665155848 258.168852 0.665155848 258.168852 258.290759 0 258.290759"></polyline>
        <polygon id="path-3" points="0 0.665155848 258.168852 0.665155848 258.168852 258.290759 0 258.290759"></polygon>
    </defs>
    <g id="Page-1" stroke="none" stroke-width="1" fill="none" fill-rule="evenodd">
        <g id="smartx-logo-copy-2" transform="translate(-0.141473, -0.149286)">
            <polygon id="Fill-1" fill="#0096FF" points="197.453228 0.664927272 26.554652 99.333521 26.554652 138.800959 60.7343671 158.534677 231.633705 59.8660835 231.633705 20.398646"></polygon>
            <polygon id="Fill-2" fill="#40CF4A" points="60.7342148 0.664927272 26.5544996 20.398646 26.5544996 59.8660835 56.4621313 77.1334684 124.821562 37.665269"></polygon>
            <polygon id="Fill-3" fill="#40CF4A" points="133.366338 121.533726 197.453685 158.534068 231.6334 138.801111 231.6334 99.3336734 201.725768 82.0662885"></polygon>
            <g id="Group-34">
                <g id="Group-6">
                    <mask id="mask-2" fill="white">
                        <use xlink:href="#path-1"></use>
                    </mask>
                    <g id="Clip-5"></g>
                    <path d="M18.2004317,211.855338 C14.4510251,211.77686 12.4974631,210.60579 12.4974631,208.496796 C12.4974631,206.621712 14.3725474,205.294448 18.0427143,205.294448 C21.5589734,205.294448 24.2912173,206.074653 27.1819404,208.105931 L32.7271916,201.075699 C28.6661599,197.561725 23.9018763,196.077506 17.9657604,196.077506 C9.60826385,196.077506 1.32848309,199.749197 1.32848309,208.496796 C1.32848309,217.556782 10.3115157,220.524459 17.495656,220.83837 C22.729282,220.993802 24.0580699,222.477259 24.0580699,224.273866 C24.1350238,226.305144 21.5589734,227.631646 18.2773855,227.554692 C14.2163538,227.476214 9.60826385,226.616769 4.8432184,222.711931 L-0.000304767857,230.677801 C6.56210912,236.14686 12.4197473,237.240214 18.1219539,237.240214 C30.3835268,237.240214 35.0708564,230.522369 34.9916168,224.273866 C34.9146629,213.651944 25.7761987,212.090009 18.2004317,211.855338" id="Fill-4" fill="#212934" mask="url(#mask-2)"></path>
                </g>
                <path d="M84.9850503,196.233166 C79.2836056,196.233166 75.6126768,198.264444 72.1756573,203.49807 C69.6765608,197.873579 65.1454247,196.311644 60.9281995,196.311644 C57.9041404,196.311644 53.9048242,197.207661 51.3988705,200.646205 L51.3988705,197.171089 L49.9931288,197.171089 L40.1514128,197.171089 L40.1514128,224.33962 L40.1514128,235.755462 L51.3988705,235.755462 L51.3988705,224.33962 L51.3988705,215.134868 C51.3988705,210.76145 53.897967,206.62194 58.3506254,206.62194 C62.9602392,206.62194 64.9899931,209.97972 64.9899931,215.057915 L64.9899931,235.755462 L76.0812574,235.755462 L76.0812574,215.057915 C76.0812574,210.682972 78.7365473,206.856612 83.1884438,206.856612 C87.7195799,206.856612 89.046082,210.05896 89.046082,214.901721 L89.046082,235.755462 L100.372017,235.755462 L100.372017,214.66705 C100.372017,200.295721 93.0301598,196.233166 84.9850503,196.233166" id="Fill-7" fill="#212934"></path>
                <path d="M164.276428,201.420391 L164.276428,197.249643 L163.496222,197.249643 L153.02897,197.249643 L153.02897,235.755538 L164.276428,235.755538 L164.276428,215.682003 C164.276428,209.902842 168.416699,206.777448 173.25946,206.777448 C175.602363,206.777448 177.555163,207.402984 179.428723,208.730248 L184.116053,199.826455 C181.383047,197.405836 178.336893,196.31172 174.665202,196.31172 C170.368737,196.31172 166.85324,197.827178 164.276428,201.420391" id="Fill-9" fill="#212934"></path>
                <path d="M208.098236,226.461033 C205.990004,226.461033 203.724817,225.367678 203.724817,221.305884 L203.724817,206.7776 L213.566533,206.7776 L213.566533,197.405989 L203.804057,197.405989 L203.804057,186.62635 L192.556599,193.115619 L192.556599,197.405989 L185.68256,197.405989 L185.68256,206.7776 L192.556599,206.7776 L192.556599,221.305884 C192.556599,233.335072 198.882056,237.005238 207.239552,236.614374 C210.285707,236.458942 212.551656,235.990361 215.36314,234.897007 L212.784803,225.523109 C211.535255,226.148645 209.427024,226.461033 208.098236,226.461033" id="Fill-11" fill="#212934"></path>
                <path d="M125.453422,226.617074 C119.828931,226.617074 115.30008,222.867667 115.30008,216.463732 C115.30008,210.059036 119.828931,206.231152 125.453422,206.231152 C132.169743,206.231152 135.684479,211.308584 135.684479,216.854597 C135.684479,221.697359 131.778879,226.617074 125.453422,226.617074 L125.453422,226.617074 Z M135.684479,197.171165 L135.684479,201.623062 C133.654725,198.186042 129.123589,196.31172 124.280827,196.31172 C112.877176,196.156288 104.052623,203.654339 104.052623,216.463732 C104.052623,229.19541 112.409357,236.693461 123.969202,236.614983 C127.65156,236.538791 133.051284,235.015714 135.684479,231.113161 L135.684479,235.755538 L136.466208,235.755538 L146.619549,235.755538 L146.619549,197.171165 L136.075343,197.171165 L135.684479,197.171165 Z" id="Fill-13" fill="#212934"></path>
                <polygon id="Fill-15" fill="#212934" points="258.168623 235.755843 244.363401 216.028219 257.466133 197.249948 244.032728 197.249948 237.62727 206.402888 231.221811 197.249948 217.788406 197.249948 230.910948 216.00079 217.085916 235.755843 230.597799 235.755843 237.656223 225.639836 244.735218 235.755843"></polygon>
                <polygon id="Fill-17" fill="#212934" points="16.5472184 248.951148 12.5829505 253.941722 12.0686548 253.941722 8.23467512 248.915338 8.23467512 257.88618 5.37214302 257.88618 5.37214302 245.044024 8.65601668 245.044024 12.4000898 249.979739 16.1609252 245.044024 19.4082267 245.044024 19.4082267 257.88618 16.5472184 257.88618"></polygon>
                <path d="M35.8096899,247.924461 L33.5909799,253.134468 L38.0123996,253.134468 L35.8096899,247.924461 Z M39.0943255,255.666327 L32.5075301,255.666327 L31.5711309,257.869036 L28.4899279,257.869036 L34.2508023,245.024595 L37.3701013,245.024595 L43.1309757,257.869036 L40.0299628,257.869036 L39.0943255,255.666327 Z" id="Fill-19" fill="#212934"></path>
                <polygon id="Fill-21" fill="#212934" points="62.8153983 245.097358 57.6038679 251.264336 63.2740739 257.703319 63.2740739 257.868655 59.8248637 257.868655 55.0720089 252.383596 55.0720089 257.868655 52.2094768 257.868655 52.2094768 245.024214 55.0720089 245.024214 55.0720089 250.327937 59.347902 245.024214 62.8153983 245.024214"></polygon>
                <polygon id="Fill-23" fill="#212934" points="82.0583646 257.868732 72.2776021 257.868732 72.2776021 245.02429 81.8023596 245.02429 81.8023596 247.649103 75.085276 247.649103 75.085276 250.125342 81.4160663 250.125342 81.4160663 252.639677 75.085276 252.639677 75.085276 255.226394 82.0583646 255.226394"></polygon>
                <mask id="mask-4" fill="white">
                    <use xlink:href="#path-3"></use>
                </mask>
                <g id="Clip-26"></g>
                <polygon id="Fill-25" fill="#212934" mask="url(#mask-4)" points="104.097271 245.024214 106.942279 245.024214 106.942279 257.868655 104.097271 257.868655"></polygon>
                <polygon id="Fill-27" fill="#212934" mask="url(#mask-4)" points="120.309093 247.575731 116.400445 247.575731 116.400445 245.024062 127.061224 245.024062 127.061224 247.575731 123.152577 247.575731 123.152577 257.868503 120.309093 257.868503"></polygon>
                <path d="M155.687384,248.125608 C154.971941,247.372831 153.723155,247.043682 152.714373,247.043682 C151.448825,247.043682 150.420995,247.575502 150.420995,248.456281 C150.420995,249.631161 151.540255,249.849832 153.191335,249.997645 C155.723194,250.217839 158.12705,251.189287 158.12705,254.162297 C158.12705,257.025591 155.484713,258.272854 152.714373,258.290378 C150.494139,258.310188 148.182475,257.446933 147.099025,255.648041 L148.807249,253.868958 C149.796221,255.133745 151.429777,255.685375 152.731897,255.685375 C154.254975,255.685375 155.30109,255.078887 155.30109,254.162297 C155.319376,253.078848 154.457645,252.584362 152.714373,252.438073 C149.998892,252.180544 147.577511,251.502436 147.613321,248.474567 C147.632369,245.924422 150.054512,244.565158 152.696849,244.565158 C154.678602,244.565158 156.164345,245.006309 157.484752,246.547672 L155.687384,248.125608 Z" id="Fill-28" fill="#212934" mask="url(#mask-4)"></path>
                <polygon id="Fill-29" fill="#212934" mask="url(#mask-4)" points="167.80823 245.024214 170.653238 245.024214 170.653238 257.868655 167.80823 257.868655"></polygon>
                <polygon id="Fill-30" fill="#212934" mask="url(#mask-4)" points="192.405358 248.951148 188.44109 253.941722 187.926794 253.941722 184.092815 248.915338 184.092815 257.88618 181.230282 257.88618 181.230282 245.044024 184.514156 245.044024 188.258229 249.979739 192.019065 245.044024 195.266366 245.044024 195.266366 257.88618 192.405358 257.88618"></polygon>
                <path d="M208.714248,251.611162 L211.905929,251.611162 C213.28348,251.611162 213.963112,250.712859 213.963112,249.685791 C213.963112,248.657199 213.265194,247.741372 211.905929,247.741372 L208.714248,247.741372 L208.714248,251.611162 Z M208.714248,254.235213 L208.714248,257.868808 L205.851716,257.868808 L205.851716,245.024366 L211.905929,245.024366 C215.190565,245.024366 216.82412,247.153932 216.82412,249.630933 C216.82412,252.198602 215.173041,254.200165 211.905929,254.235213 L208.714248,254.235213 Z" id="Fill-31" fill="#212934" mask="url(#mask-4)"></path>
                <polygon id="Fill-32" fill="#212934" mask="url(#mask-4)" points="229.25964 245.024366 229.25964 255.243995 235.681098 255.243995 235.681098 257.868808 226.397107 257.868808 226.397107 245.024366"></polygon>
                <polygon id="Fill-33" fill="#212934" mask="url(#mask-4)" points="254.906159 257.868732 245.125397 257.868732 245.125397 245.02429 254.650154 245.02429 254.650154 247.649103 247.933071 247.649103 247.933071 250.125342 254.263861 250.125342 254.263861 252.639677 247.933071 252.639677 247.933071 255.226394 254.906159 255.226394"></polygon>
            </g>
        </g>
    </g>
</svg>